<svg xmlns:dc="http://purl.org/dc/elements/1.1/" xmlns:cc="http://creativecommons.org/ns#" xmlns:rdf="http://www.w3.org/1999/02/22-rdf-syntax-ns#" xmlns:svg="http://www.w3.org/2000/svg" xmlns="http://www.w3.org/2000/svg" style="shape-rendering: geometricprecision;" id="svg8" version="1.1" viewBox="0 0 100 100" height="100mm" width="100mm">
  <defs id="defs2">
    <filter id="filter1" style="color-interpolation-filters:sRGB">
      <feFlood id="feFlood6559" result="flood" flood-color="rgb(0,0,0)" flood-opacity="0.498039"/>
      <feComposite id="feComposite6561" result="composite1" operator="out" in2="flood" in="SourceGraphic"/>
      <feGaussianBlur id="feGaussianBlur6563" result="blur" stdDeviation="30" in="composite1"/>
      <feOffset id="feOffset6565" result="offset" dy="0" dx="0"/>
      <feComposite id="feComposite6567" result="fbSourceGraphic" operator="atop" in2="SourceGraphic" in="offset"/>
      <feColorMatrix id="feColorMatrix6995" values="0 0 0 -1 0 0 0 0 -1 0 0 0 0 -1 0 0 0 0 1 0" in="fbSourceGraphic" result="fbSourceGraphicAlpha"/>
      <feOffset in="fbSourceGraphic" dx="3" dy="3" id="feOffset6997"/>
      <feGaussianBlur result="blur" stdDeviation="3" id="feGaussianBlur6999"/>
      <feFlood result="flood" flood-opacity="1" flood-color="rgb(0,0,0)" id="feFlood7001"/>
      <feComposite result="composite" operator="in" in="flood" id="feComposite7003" in2="fbSourceGraphic"/>
      <feBlend mode="normal" in="blur" id="feBlend7005" in2="composite"/>
    </filter>
    <filter id="filter2" style="color-interpolation-filters:sRGB;">
      <feGaussianBlur id="feGaussianBlur7494" in="SourceGraphic" stdDeviation="3" result="result6"/>
      <feColorMatrix id="feColorMatrix7496" in="SourceGraphic" result="result7" values="1 0 0 0 0 0 1 0 0 0 0 0 1 0 0 0 0 0 1 0 "/>
      <feComposite id="feComposite7498" in2="result7" in="result6" operator="in"/>
    </filter>
  </defs>
  <g transform="translate(0,-197)" id="layer1">
    <g transform="matrix(1.0346018,0,0,1.0346018,-80.515023,-17.688525)" id="g7517">
      <path style="fill:#220b28;stroke-width:0.26458332;filter: url(#filter1);" id="path6539" d="m 166.04914,287.80958 c -4.3889,7.6018 -75.409358,7.6018 -79.798262,0 -4.388905,-7.60181 31.121322,-69.10732 39.899132,-69.10732 8.77781,0 44.28803,61.50551 39.89913,69.10732 z"/>
      <path style="fill:currentColor;stroke-width:0.26458332;filter: url(#filter2);" d="m 126.15034,234.40232 c -5.84952,0 -29.513832,40.98717 -26.58907,46.053 2.92476,5.06583 50.25287,5.06583 53.17763,0 1.00061,-1.73311 -1.11289,-7.67223 -4.55838,-14.7345 h -34.44699 c 0,0 -0.88122,0.0443 -1.26814,-0.59118 -0.41405,-0.6801 0.13281,-1.53065 0.13281,-1.53065 l 1.09657,-2.12184 1.09709,-2.12235 c 0,0 0.64028,-1.43129 1.27176,-1.81488 0.66298,-0.40273 2.30684,-0.30696 2.30684,-0.30696 h 25.33385 c -6.47268,-11.48854 -14.4769,-22.83064 -17.55397,-22.83064 z" id="path7134"/>
    </g>
  </g>
</svg>