<svg xmlns:dc="http://purl.org/dc/elements/1.1/" xmlns:cc="http://creativecommons.org/ns#" xmlns:rdf="http://www.w3.org/1999/02/22-rdf-syntax-ns#" xmlns:svg="http://www.w3.org/2000/svg" xmlns="http://www.w3.org/2000/svg" style="shape-rendering: geometricprecision;" id="svg8" version="1.1" viewBox="0 0 100 100" height="100mm" width="100mm">
  <defs id="defs2">
    <filter id="filter1" style="color-interpolation-filters:sRGB;">
      <feFlood id="feFlood4029" result="flood" flood-color="rgb(0,0,0)" flood-opacity="0.498039"/>
      <feComposite id="feComposite4031" result="composite1" operator="out" in2="SourceGraphic" in="flood"/>
      <feGaussianBlur id="feGaussianBlur4033" result="blur" stdDeviation="0" in="composite1"/>
      <feOffset id="feOffset4035" result="offset" dy="-0.3" dx="18"/>
      <feComposite id="feComposite4037" result="composite2" operator="atop" in2="SourceGraphic" in="offset"/>
    </filter>
  </defs>
  <g transform="translate(0,-197)" id="layer1">
    <g transform="matrix(1.0346018,0,0,1.0346018,-80.515023,-17.688525)" id="g7517">
      <path id="path6539" transform="matrix(0.25573446,0,0,0.25573446,77.822234,207.50836)" d="M 188.97656 43.771484 C 154.65264 43.771484 15.797025 284.27657 32.958984 314.00195 C 50.120944 343.72734 327.83218 343.72734 344.99414 314.00195 C 362.1561 284.27657 223.30048 43.771485 188.97656 43.771484 z M 188.97852 105.16406 C 201.0108 105.16406 232.30898 149.51379 257.61914 194.4375 L 158.55664 194.4375 C 158.55664 194.4375 152.12761 194.06387 149.53516 195.63867 C 147.06588 197.13863 144.5625 202.73633 144.5625 202.73633 L 140.27344 211.03516 L 135.98438 219.33203 C 135.98438 219.33203 133.84578 222.65701 135.46484 225.31641 C 136.97782 227.80133 140.42383 227.62891 140.42383 227.62891 L 275.12305 227.62891 C 288.59597 255.24454 296.85996 278.46715 292.94727 285.24414 C 281.51056 305.05309 96.442566 305.05309 85.005859 285.24414 C 73.569145 265.4352 166.1051 105.16406 188.97852 105.16406 z " style="fill:#220b28;stroke-width:1.03460169;filter:url(#filter1);"/>
    </g>
  </g>
</svg>