<svg xmlns:dc="http://purl.org/dc/elements/1.1/" xmlns:cc="http://creativecommons.org/ns#" xmlns:rdf="http://www.w3.org/1999/02/22-rdf-syntax-ns#" xmlns:svg="http://www.w3.org/2000/svg" xmlns="http://www.w3.org/2000/svg" height="99.994347" width="99.969223" xml:space="preserve" viewBox="0 0 99.969223 99.994347" y="0px" x="0px" version="1.1"><path id="path2" d="m 1.4061398,8.3417855 c -1.87485307,-1.8748533 -1.87485307,-4.9952381 0,-6.9356456 1.9404075,-1.87485316 4.9952381,-1.87485316 6.9356456,0 L 49.960029,43.094308 91.648196,1.4061398 c 1.874854,-1.87485306 4.995239,-1.87485306 6.865721,0 1.940403,1.9404075 1.940403,5.0651627 0,6.9356457 L 56.895675,49.964399 98.513917,91.652568 c 1.940403,1.874852 1.940403,4.995238 0,6.935645 -1.874852,1.874847 -4.995238,1.874847 -6.865721,0 L 49.960029,56.900045 8.3417854,98.588213 c -1.9404075,1.874847 -4.9952381,1.874847 -6.9356456,0 -1.87485307,-1.940407 -1.87485307,-5.065163 0,-6.935645 L 43.024383,49.964399 Z" style="fill:#ffffff;stroke-width:4.37028742"/></svg>